<?xml version="1.0" ?><svg height="146.6391mm" id="svg5412" version="1.1" viewBox="0 0 519.58736 519.58736" width="146.6391mm" xmlns="http://www.w3.org/2000/svg" xmlns:cc="http://creativecommons.org/ns#" xmlns:dc="http://purl.org/dc/elements/1.1/" xmlns:rdf="http://www.w3.org/1999/02/22-rdf-syntax-ns#" xmlns:svg="http://www.w3.org/2000/svg"><defs id="defs5414"/><g id="layer1" transform="translate(-748.9903,-560.96381)"><g id="g4731" transform="translate(15292.267,-2298.6089)"><path d="m -14360.634,3197.9767 -9.84,127.6329 c -0.07,0.4237 -0.131,1.2718 -0.131,1.2718 0,21.2532 44.44,38.4819 87.12,38.4817 42.68,-2e-4 87.119,-17.2287 87.119,-38.4817 -0.01,-0.601 -0.05,-1.2018 -0.131,-1.802 l -9.84,-127.1027" id="rect4480-3" style="opacity:1;fill:none;fill-opacity:1;fill-rule:nonzero;stroke:#000000;stroke-width:12.5;stroke-linecap:round;stroke-linejoin:round;stroke-miterlimit:4;stroke-dasharray:none;stroke-dashoffset:67.27761078;stroke-opacity:1"/><path d="m -14271.604,3161.632 c 37.043,2.845 65.403,18.7886 65.403,38.0307 0,21.2532 -34.599,38.4824 -77.28,38.4824 -42.681,0 -77.282,-17.2292 -77.282,-38.4824 0,-19.3761 28.759,-35.4077 66.18,-38.0884" id="path4478-7-4-5" style="opacity:1;fill:none;fill-opacity:1;fill-rule:nonzero;stroke:#000000;stroke-width:12.5;stroke-linecap:round;stroke-linejoin:round;stroke-miterlimit:4;stroke-dasharray:none;stroke-dashoffset:67.27761078;stroke-opacity:1"/><path d="m -17446.494,367.91016 0,26.29687 c 0,4.10038 -3.3,7.40235 -7.401,7.40235 l -4.75,0 c -4.1,0 -7.4,-3.30197 -7.4,-7.40235 l 0,-26.29297 c -29.01,1.87691 -51.168,11.95951 -51.168,24.12305 0,13.4989 27.286,24.44141 60.945,24.44141 33.658,0 60.944,-10.94251 60.944,-24.44141 0,-12.16406 -22.159,-22.25106 -51.17,-24.12695 z" id="path4478-7-4-9-3" style="opacity:1;fill:#000000;fill-opacity:1;fill-rule:nonzero;stroke:none;stroke-width:12.5;stroke-linecap:round;stroke-linejoin:round;stroke-miterlimit:4;stroke-dasharray:none;stroke-dashoffset:67.27761078;stroke-opacity:1" transform="translate(3172.7875,2807.8281)"/><rect height="336.06674" id="rect4316-4" rx="7.4014044" ry="7.4014044" style="opacity:1;fill:none;fill-opacity:1;fill-rule:nonzero;stroke:#000000;stroke-width:12.5;stroke-linecap:round;stroke-linejoin:round;stroke-miterlimit:4;stroke-dasharray:none;stroke-dashoffset:125;stroke-opacity:1" width="19.552017" x="-14293.258" y="2873.3706"/></g></g></svg>